<svg width="554" height="260" viewBox="0 0 554 260" fill="none" xmlns="http://www.w3.org/2000/svg">
<path fill-rule="evenodd" clip-rule="evenodd" d="M554 0H448.992C448.995 0.0811157 448.997 0.162415 448.998 0.243866C448.999 0.329071 449 0.414459 449 0.5C449 9.06042 442.06 16 433.5 16C424.94 16 418 9.06042 418 0.5C418 0.332703 418.003 0.166016 418.008 0H0V80H12C16.4183 80 20 83.5817 20 88V172C20 176.418 16.4183 180 12 180H0V260H418.008C418.003 259.834 418 259.667 418 259.5C418 250.94 424.94 244 433.5 244C442.06 244 449 250.94 449 259.5C449 259.667 448.997 259.834 448.992 260H554V180H542C537.582 180 534 176.418 534 172V88C534 83.5817 537.582 80 542 80H554V0ZM433 148C445.703 148 456 137.703 456 125C456 112.297 445.703 102 433 102C420.297 102 410 112.297 410 125C410 137.703 420.297 148 433 148ZM439 34C439 37.3137 436.314 40 433 40C429.686 40 427 37.3137 427 34C427 30.6863 429.686 28 433 28C436.314 28 439 30.6863 439 34ZM433 173C436.314 173 439 170.314 439 167C439 163.686 436.314 161 433 161C429.686 161 427 163.686 427 167C427 170.314 429.686 173 433 173ZM439 59C439 62.3137 436.314 65 433 65C429.686 65 427 62.3137 427 59C427 55.6863 429.686 53 433 53C436.314 53 439 55.6863 439 59ZM433 197C436.314 197 439 194.314 439 191C439 187.686 436.314 185 433 185C429.686 185 427 187.686 427 191C427 194.314 429.686 197 433 197ZM439 83C439 86.3137 436.314 89 433 89C429.686 89 427 86.3137 427 83C427 79.6863 429.686 77 433 77C436.314 77 439 79.6863 439 83ZM433 221C436.314 221 439 218.314 439 215C439 211.686 436.314 209 433 209C429.686 209 427 211.686 427 215C427 218.314 429.686 221 433 221Z" fill="white"/>
</svg>
